<svg width="286" height="131" viewBox="0 0 286 131" fill="none" xmlns="http://www.w3.org/2000/svg">
<path d="M282.794 63.9556L255.484 45.6599L217.131 2.62023C215.653 0.962024 213.446 0 211.116 0H45.7824C41.4845 0 38 3.21026 38 7.17216C38 47.0492 38 69.4066 38 109.284C38 113.246 41.4845 116.456 45.7824 116.456H66.2616C69.4835 124.915 78.232 131 88.4986 131C98.7652 131 107.514 124.915 110.736 116.456H210.497C213.719 124.915 222.467 131 232.734 131C243.001 131 251.749 124.915 254.971 116.456H278.218C282.516 116.456 286 113.246 286 109.284V69.7564C286 67.4613 284.808 65.3049 282.794 63.9556ZM88.4986 116.656C84.0875 116.656 80.4993 113.349 80.4993 109.284C80.4993 105.218 84.0875 101.912 88.4986 101.912C92.9097 101.912 96.4979 105.218 96.4979 109.284C96.4979 113.349 92.9097 116.656 88.4986 116.656ZM232.734 116.656C228.323 116.656 224.735 113.349 224.735 109.284C224.735 105.218 228.323 101.912 232.734 101.912C237.144 101.912 240.732 105.218 240.732 109.284C240.732 113.349 237.145 116.656 232.734 116.656ZM270.435 102.111H254.978C251.757 93.6503 243.003 87.5673 232.735 87.5673C222.467 87.5673 213.713 93.6503 210.491 102.111H110.743C107.522 93.6503 98.7662 87.5673 88.4986 87.5673C78.231 87.5673 69.4763 93.6503 66.2544 102.111H53.5649V14.3443H207.437L244.088 55.4733C244.508 55.9448 244.991 56.3646 245.526 56.7232L270.435 73.4095V102.111Z" fill="white"/>
<rect x="42" y="48" width="8" height="7" fill="#3D88EE"/>
<rect x="42" y="57" width="8" height="20" fill="#3D88EE"/>
<path d="M32.16 77H23.52V63.32H11.52V77H2.88V43.4H11.52V56.6H23.52V43.4H32.16V77Z" fill="white"/>
<path d="M65.88 77H56.52L69.24 43.4H78.84L91.56 77H82.2L80.04 71H68.04L65.88 77ZM70.2 64.76H77.88L74.04 53.48L70.2 64.76ZM116.038 76.52C110.054 77.16 104.774 77.48 100.198 77.48C98.0221 77.48 96.2781 76.824 94.9661 75.512C93.6541 74.2 92.9981 72.456 92.9981 70.28V59.24C92.9981 56.84 93.6701 54.968 95.0141 53.624C96.3901 52.248 98.2781 51.56 100.678 51.56H116.038V58.04H103.318C102.038 58.04 101.398 58.68 101.398 59.96V69.32C101.398 69.8 101.558 70.2 101.878 70.52C102.198 70.84 102.598 71 103.078 71C105.958 71 110.278 70.76 116.038 70.28V76.52ZM129.709 57.08C128.429 57.08 127.789 57.72 127.789 59V61.64H135.949V59C135.949 57.72 135.309 57.08 134.029 57.08H129.709ZM143.389 76.52C137.213 77.16 131.613 77.48 126.589 77.48C124.413 77.48 122.669 76.824 121.357 75.512C120.045 74.2 119.389 72.456 119.389 70.28V58.76C119.389 56.36 120.061 54.488 121.405 53.144C122.781 51.768 124.669 51.08 127.069 51.08H136.669C139.069 51.08 140.941 51.768 142.285 53.144C143.661 54.488 144.349 56.36 144.349 58.76V67.64H127.789V69.56C127.789 70.04 127.949 70.44 128.269 70.76C128.589 71.08 128.989 71.24 129.469 71.24C132.637 71.24 137.277 71 143.389 70.52V76.52ZM177.93 76.28C170.442 77.08 163.562 77.48 157.29 77.48C154.154 77.48 151.85 76.744 150.378 75.272C148.906 73.8 148.17 71.496 148.17 68.36V53C148.17 49.64 148.922 47.208 150.426 45.704C151.962 44.168 154.41 43.4 157.77 43.4H175.05V50.12H159.69C157.77 50.12 156.81 51.08 156.81 53V68.36C156.81 69.096 157.018 69.688 157.434 70.136C157.882 70.552 158.474 70.76 159.21 70.76C162.89 70.76 166.25 70.68 169.29 70.52V63.56H163.05V57.8H177.93V76.28ZM208.179 69.8C208.179 72.2 207.491 74.088 206.115 75.464C204.771 76.808 202.899 77.48 200.499 77.48H189.459C187.059 77.48 185.171 76.808 183.795 75.464C182.451 74.088 181.779 72.2 181.779 69.8V58.76C181.779 56.36 182.451 54.488 183.795 53.144C185.171 51.768 187.059 51.08 189.459 51.08H200.499C202.899 51.08 204.771 51.768 206.115 53.144C207.491 54.488 208.179 56.36 208.179 58.76V69.8ZM199.779 59.48C199.779 58.2 199.139 57.56 197.859 57.56H192.099C190.819 57.56 190.179 58.2 190.179 59.48V69.08C190.179 70.36 190.819 71 192.099 71H197.859C199.139 71 199.779 70.36 199.779 69.08V59.48Z" fill="white"/>
</svg>
